HIERARCHY
ROOT Hips
{
 OFFSET 0.000000 0.000000 0.000000
 CHANNELS 6 Xposition Yposition Zposition Yrotation Xrotation Zrotation
 JOINT Chest
 {
  OFFSET 0.000000 9.581000 -0.001100
  CHANNELS 3 Yrotation Xrotation Zrotation
  JOINT Chest2
  {
   OFFSET 0.000000 9.561100 0.002200
   CHANNELS 3 Yrotation Xrotation Zrotation
   JOINT Chest3
   {
    OFFSET 0.000000 9.521100 0.000000
    CHANNELS 3 Yrotation Xrotation Zrotation
    JOINT Chest4
    {
     OFFSET 0.000000 9.511400 0.000000
     CHANNELS 3 Yrotation Xrotation Zrotation
     JOINT Neck
     {
      OFFSET 0.000000 14.375100 0.000000
      CHANNELS 3 Yrotation Xrotation Zrotation
      JOINT Head
      {
       OFFSET 0.000000 8.901200 0.004600
       CHANNELS 3 Yrotation Xrotation Zrotation
       End Site
       {
        OFFSET 0.000000 16.962200 0.002400
       }
      }
     }
     JOINT RightCollar
     {
      OFFSET -2.920100 9.518800 0.000000
      CHANNELS 3 Yrotation Xrotation Zrotation
      JOINT RightShoulder
      {
       OFFSET -13.664500 0.000000 0.000000
       CHANNELS 3 Yrotation Xrotation Zrotation
       JOINT RightElbow
       {
        OFFSET 0.000000 -29.999200 0.000000
        CHANNELS 3 Yrotation Xrotation Zrotation
        JOINT RightWrist
        {
         OFFSET 0.000000 -24.253600 0.000000
         CHANNELS 3 Yrotation Xrotation Zrotation
         End Site
         {
          OFFSET 0.000000 -17.918900 0.000000
         }
        }
       }
      }
     }
     JOINT LeftCollar
     {
      OFFSET 2.920100 9.518800 0.000000
      CHANNELS 3 Yrotation Xrotation Zrotation
      JOINT LeftShoulder
      {
       OFFSET 13.664500 0.000000 0.000000
       CHANNELS 3 Yrotation Xrotation Zrotation
       JOINT LeftElbow
       {
        OFFSET 0.000000 -29.999200 0.000000
        CHANNELS 3 Yrotation Xrotation Zrotation
        JOINT LeftWrist
        {
         OFFSET 0.000000 -24.253600 0.000000
         CHANNELS 3 Yrotation Xrotation Zrotation
         End Site
         {
          OFFSET 0.000000 -17.918900 0.000000
         }
        }
       }
      }
     }
    }
   }
  }
 }
 JOINT RightHip
 {
  OFFSET -7.797300 0.005300 0.000500
  CHANNELS 3 Yrotation Xrotation Zrotation
  JOINT RightKnee
  {
   OFFSET 0.000000 -40.663400 -0.000500
   CHANNELS 3 Yrotation Xrotation Zrotation
   JOINT RightAnkle
   {
    OFFSET 0.000000 -39.523700 -0.000900
    CHANNELS 3 Yrotation Xrotation Zrotation
    JOINT RightToe
    {
     OFFSET 0.000000 -6.418000 14.485300
     CHANNELS 3 Yrotation Xrotation Zrotation
     End Site
     {
      OFFSET 0.000000 -1.465200 6.326400
     }
    }
   }
  }
 }
 JOINT LeftHip
 {
  OFFSET 7.797300 0.005300 0.000500
  CHANNELS 3 Yrotation Xrotation Zrotation
  JOINT LeftKnee
  {
   OFFSET 0.000000 -40.663400 -0.000500
   CHANNELS 3 Yrotation Xrotation Zrotation
   JOINT LeftAnkle
   {
    OFFSET 0.000000 -39.523700 -0.000900
    CHANNELS 3 Yrotation Xrotation Zrotation
    JOINT LeftToe
    {
     OFFSET 0.000000 -6.418000 14.485300
     CHANNELS 3 Yrotation Xrotation Zrotation
     End Site
     {
      OFFSET 0.000000 -1.465200 6.326400
     }
    }
   }
  }
 }
}
MOTION
Frames: 6
Frame Time: 0.008333
-23.695532 126.368291 51.916871 -179.624918 -27.267479 -2.753009 -0.684203 21.126389 2.036068 -0.114090 2.751644 0.307670 -0.198652 4.525551 0.487946 -0.621504 17.989066 1.866835 4.319967 15.798004 -2.021126 5.052102 -9.025072 -3.163364 -3.461244 -6.885036 -0.497975 8.343376 -16.124129 -9.364338 61.812853 -60.783598 -36.380099 3.364184 15.532275 -30.852387 -9.747936 -4.517747 1.235110 -1.974991 -20.128805 8.001402 -38.264110 -68.391594 24.647512 -21.691490 5.241898 17.005235 -9.200909 -54.185488 4.673790 -14.589990 70.653980 -17.746289 18.075426 11.551274 5.235140 0.030871 -0.000829 0.013679 -4.636932 -54.075770 -8.021747 39.138473 65.359874 31.004296 8.077473 32.500673 9.667557 0.019837 0.171182 0.008796
-23.691386 126.372856 51.918496 -179.608536 -27.334707 -2.762877 -0.650269 21.125492 2.076701 -0.127929 2.780063 0.298937 -0.201375 4.537023 0.485016 -0.630960 18.010186 1.868895 4.357041 15.824259 -1.976027 5.012221 -9.013579 -3.167472 -3.439556 -6.955928 -0.477793 8.317138 -16.048067 -9.387139 61.838757 -60.780410 -36.395205 3.363037 15.542869 -30.853309 -9.716868 -4.540966 1.234544 -2.008035 -20.129720 7.972220 -38.439417 -68.391280 24.867812 -21.702700 5.274201 16.973019 -9.173998 -54.122704 4.643013 -14.587601 70.639425 -17.731712 18.084999 11.579104 5.247246 0.026118 -0.013045 0.011571 -4.727484 -54.058416 -7.884527 39.217181 65.314600 31.048331 7.902977 32.874406 9.491808 0.041416 0.126123 0.018375
-23.681954 126.373344 51.927634 -179.603652 -27.353600 -2.799799 -0.627938 21.126217 2.122494 -0.110978 2.763039 0.302192 -0.215726 4.557156 0.482566 -0.563146 17.984896 1.877600 4.338208 15.868591 -1.914598 5.041118 -8.946650 -3.054391 -3.509898 -6.965561 -0.450385 8.332075 -16.020869 -9.407571 61.729489 -60.797550 -36.301754 3.384455 15.552362 -30.851054 -9.750527 -4.532418 1.251744 -2.040569 -20.161780 7.879995 -38.635160 -68.320821 25.126160 -21.693281 5.284274 16.896165 -9.194748 -54.103237 4.683070 -14.552907 70.608128 -17.694010 18.097777 11.619044 5.282857 0.000869 -0.022864 0.000385 -4.913363 -54.101236 -7.635131 39.311663 65.285310 31.073435 7.772777 33.247060 9.351533 0.031674 0.068910 0.014047
-23.677350 126.373487 51.936089 -179.587678 -27.376083 -2.814721 -0.624416 21.130161 2.139060 -0.092260 2.744577 0.303449 -0.231443 4.577657 0.482241 -0.515597 17.960867 1.878426 4.348257 15.912480 -1.844737 5.060910 -8.898854 -2.966209 -3.574572 -6.960020 -0.425846 8.342980 -16.019629 -9.419249 61.584493 -60.818520 -36.166655 3.407329 15.552870 -30.839675 -9.763195 -4.518454 1.266121 -2.086826 -20.152018 7.846515 -38.711506 -68.303666 25.241273 -21.725750 5.319559 16.908744 -9.148756 -54.086418 4.645842 -14.577457 70.591252 -17.686792 18.080430 11.637624 5.293924 -0.006751 -0.024046 -0.002990 -5.108284 -54.151744 -7.397167 39.417104 65.269365 31.086885 7.628626 33.583493 9.202472 0.027405 0.036997 0.012148
-23.671512 126.374327 51.942642 -179.562410 -27.410207 -2.843684 -0.607033 21.126783 2.174032 -0.106824 2.763231 0.299826 -0.183143 4.532142 0.484545 -0.554707 18.006916 1.879337 4.402092 15.944745 -1.779742 5.078956 -8.847822 -2.893680 -3.602884 -6.974859 -0.409852 8.339737 -16.022956 -9.420864 61.455724 -60.838517 -36.035646 3.355477 15.538291 -30.834399 -9.742537 -4.525105 1.272326 -2.106759 -20.168378 7.770611 -38.829135 -68.254093 25.450794 -21.727764 5.380859 16.881522 -9.176590 -54.050759 4.661226 -14.560851 70.577715 -17.670402 18.064969 11.640257 5.301145 -0.009179 -0.012898 -0.004066 -5.337794 -54.191959 -7.126091 39.510913 65.265007 31.079334 7.496847 33.906663 9.074665 0.010747 0.003330 0.004762
-23.669619 126.376156 51.946508 -179.533539 -27.460554 -2.853318 -0.600581 21.138247 2.183185 -0.121187 2.782835 0.298542 -0.155493 4.505473 0.483372 -0.573331 18.034093 1.882689 4.459938 15.997172 -1.712911 5.103977 -8.777293 -2.819924 -3.630496 -6.989437 -0.394869 8.313346 -16.028621 -9.414631 61.341768 -60.860790 -35.903229 3.391464 15.536232 -30.823844 -9.697735 -4.536011 1.275738 -2.130030 -20.180395 7.691764 -38.895776 -68.207983 25.592897 -21.720640 5.413291 16.833766 -9.179513 -54.000545 4.639938 -14.555617 70.570900 -17.664655 18.047498 11.643347 5.301481 -0.010455 -0.009645 -0.004631 -5.528031 -54.214819 -6.895958 39.577320 65.273640 31.049590 7.341090 34.198111 8.940493 0.008479 -0.012844 0.003756
